# xmcd
# 
# Track frame offsets:
#   150
#   13946
#   30640
#   49893
#   64913
#   86221
#   103557
#   121187
#   140350
#   158742
#   177278
#   193363
# 
# Disc length: 2774 seconds
# 
# Revision: 4
# Processed by: cddbd v1.5.2PL0 Copyright (c) Steve Scherf et al.
# Submitted via: Synapstar 1.0 
# 
DISCID=a70ad40c
DTITLE=Various Artist - CB60453
DYEAR=2010
DGENRE=Country
TTITLE0=Craig Morgan - Still A Little Chicken Left On The Bone
TTITLE1=The Judds - I Will Stand By You
TTITLE2=Tim McGraw - Felt Good On My Lips
TTITLE3=Blake Shelton - Who Are You When I'm Not Looking
TTITLE4=Lady Antebellum - Hello World
TTITLE5=Jerrod Niemann - What Do You Want
TTITLE6=Billy Currington - Let Me Down Easy
TTITLE7=Little Big Town - Kiss Goodbye
TTITLE8=Gary Allan - Kiss Me When I'm Down
TTITLE9=Joey and Rory - This Song's For You
TTITLE10=Trace Adkins - Cowboy's Back In Town
TTITLE11=Thompson Square - Are You Gonna Kiss Me Or Not
EXTD=MediaType: Karaoke CD+G Producer: Chartbuster
EXTT0=
EXTT1=
EXTT2=
EXTT3=
EXTT4=
EXTT5=
EXTT6=
EXTT7=
EXTT8=
EXTT9=
EXTT10=
EXTT11=
PLAYORDER=
